<svg width="505" height="141" viewBox="0 0 505 141" fill="none" xmlns="http://www.w3.org/2000/svg">
<path fill-rule="evenodd" clip-rule="evenodd" d="M63.452 0.0340487C27.5371 1.23121 -0.2969 31.7589 0.00239098 67.6738L0.301683 138.007C0.301683 139.803 1.79814 141 3.29459 141H6.2875C20.3542 141 32.9244 137.409 41.3045 126.933C50.8818 130.824 61.357 132.321 72.73 131.423C105.652 128.131 131.092 100.296 131.99 67.0752C132.289 29.3646 101.163 -1.16311 63.452 0.0340487ZM9.28041 131.722V119.75C20.9527 118.254 30.2308 108.078 30.2308 95.8071V89.8213V65.878C30.2308 46.1248 46.0932 29.9631 65.8464 29.6638C85.5996 29.3645 101.761 45.5262 102.061 65.2794C101.761 85.6312 85.5996 101.793 65.8464 101.793C60.4591 101.793 55.3712 100.596 50.8818 98.5007V84.4341C55.0719 87.7263 60.1598 89.522 65.8464 89.522C79.0152 89.522 89.7896 78.7475 89.7896 65.5787C89.7896 52.4099 79.0152 41.6355 65.8464 41.6355C52.6776 41.6355 41.9031 52.4099 41.9031 65.5787V92.2156V98.5007C41.9031 117.655 27.5371 130.226 9.28041 131.722ZM50.8818 65.878C50.8818 57.4979 57.4662 50.9135 65.8464 50.9135C74.2265 50.9135 80.8109 57.4979 80.8109 65.878C80.8109 74.2582 74.2265 80.8426 65.8464 80.8426C57.4662 80.8426 50.8818 74.2582 50.8818 65.878ZM65.8464 122.743C58.9627 122.743 52.079 121.546 46.0932 119.152C47.8889 115.56 49.3854 111.969 49.984 107.779C55.0719 109.574 60.1598 110.772 65.8464 110.472C90.6875 110.472 110.74 90.1206 110.441 65.2794C110.441 40.4383 90.0889 20.3858 65.2478 20.6851C40.4066 20.6851 20.3542 41.0369 20.6535 65.878V95.8071C20.6535 102.99 15.5655 108.976 8.68182 110.472L8.98111 69.1702C8.98111 69.1702 8.98111 67.0752 8.98111 66.1773C8.98111 34.7518 34.1215 9.31206 65.5471 9.01277C96.9726 9.01277 122.412 34.1532 122.712 65.5787C122.712 97.0043 97.2719 122.743 65.8464 122.743Z" fill="white"/>
<path fill-rule="evenodd" clip-rule="evenodd" d="M161.619 52.1107C161.619 50.6143 162.816 49.7164 164.013 49.7164H169.999C171.496 49.7164 172.393 50.9136 172.393 52.1107V56.6001H172.693C174.189 53.9065 176.584 51.8114 179.277 50.6143C181.971 49.4171 184.964 48.8185 188.256 48.8185C191.847 48.8185 194.84 49.4171 197.534 50.6143C200.227 51.8114 202.622 53.6072 204.717 55.7022C206.812 57.7973 208.009 60.4909 209.206 63.1845C210.104 66.1774 210.703 69.1703 210.703 72.4625C210.703 75.7547 210.104 79.0469 209.206 81.7405C208.009 84.7334 206.513 87.1277 204.717 89.2228C202.921 91.3178 200.527 93.1136 197.833 94.3107C195.14 95.5079 192.147 96.1065 188.854 96.1065C186.759 96.1065 184.964 95.8072 183.168 95.5079C181.671 95.2086 180.175 94.61 178.679 93.7121C177.481 93.1136 176.284 92.2157 175.386 91.6171C174.488 90.7192 173.89 90.1207 173.291 89.2228H172.992V114.064C172.992 115.56 171.795 116.458 170.598 116.458H164.313C162.816 116.458 161.918 115.261 161.918 114.064V52.1107H161.619ZM199.33 72.1632C199.33 70.3675 199.03 68.5717 198.432 67.0753C197.833 65.5788 196.935 64.0824 195.738 62.5859C194.541 61.3887 193.045 60.1916 191.548 59.593C190.052 58.6951 187.957 58.3958 185.862 58.3958C183.767 58.3958 181.971 58.6951 180.175 59.593C178.679 60.4909 177.182 61.3887 175.985 62.5859C174.788 63.7831 173.89 65.2795 173.291 67.0753C172.693 68.5717 172.393 70.3675 172.393 72.1632C172.393 73.9589 172.693 75.7547 173.291 77.2511C173.89 78.7476 174.788 80.2441 175.985 81.7405C177.182 82.9377 178.679 84.1348 180.175 84.7334C181.671 85.6313 183.767 85.9306 185.862 85.9306C187.957 85.9306 189.752 85.6313 191.548 84.7334C193.045 83.8355 194.541 82.9377 195.738 81.7405C196.935 80.5433 197.833 79.0469 198.432 77.2511C199.03 75.7547 199.33 73.9589 199.33 72.1632ZM243.325 88.9235C243.325 88.6242 243.325 88.6242 243.325 88.9235C241.53 91.3178 239.435 93.1136 236.741 94.3107C234.347 95.5079 231.354 96.1065 228.361 96.1065C226.266 96.1065 224.171 95.8072 222.375 95.2086C220.28 94.61 218.484 93.7121 216.988 92.515C215.491 91.3178 214.294 89.8214 213.396 88.3249C212.498 86.5292 211.9 84.7334 211.9 82.3391C211.9 79.9448 212.199 77.8497 213.097 76.054C213.995 74.2582 215.192 72.7618 216.688 71.5646C218.185 70.3675 219.981 69.4696 221.776 68.871C223.871 68.2724 225.667 67.6738 227.762 67.3746C229.857 67.0753 231.952 66.776 234.047 66.776C236.142 66.776 238.237 66.776 240.033 66.776H242.727V65.5788C242.727 62.8852 241.829 60.4909 239.734 59.2937C237.639 57.7972 235.245 57.1987 232.252 57.1987C229.857 57.1987 227.762 57.498 225.667 58.3958C224.47 58.6951 223.273 59.8923 222.076 60.4909C221.178 61.0895 219.681 61.0894 218.784 60.1916L216.389 57.7972C215.491 56.8994 215.491 55.1036 216.688 54.2058C218.484 52.7093 221.477 50.9136 223.273 50.315C226.565 49.1178 230.157 48.5192 233.748 48.5192C237.04 48.5192 239.734 48.8185 241.829 49.7164C243.924 50.315 245.72 51.5121 247.216 52.41C248.713 53.6072 249.91 54.8043 250.508 56.3008C251.406 57.7972 252.005 59.2937 252.304 60.7902C252.603 62.2866 252.903 63.7831 252.903 65.2795C252.903 66.776 252.903 67.9731 252.903 68.871V92.515C252.903 94.0114 251.706 94.9093 250.508 94.9093H245.121C243.625 94.9093 242.727 93.7121 242.727 92.515V88.9235H243.325ZM242.727 74.5575H240.332C238.836 74.5575 237.04 74.5575 234.945 74.8568C232.85 74.8568 231.054 75.1561 229.558 75.7547C227.762 76.3533 226.266 76.9519 225.069 77.8497C223.871 78.7476 223.273 79.9448 223.273 81.7405C223.273 82.9377 223.572 83.8356 223.871 84.4341C224.47 85.0327 225.069 85.6313 225.667 86.2299C226.565 86.8285 227.164 87.1277 228.361 87.427C229.259 87.7263 230.157 87.7263 231.054 87.7263C234.945 87.7263 237.938 86.8285 239.734 85.0327C241.53 83.237 242.427 80.5434 242.427 77.5504V74.5575H242.727ZM256.793 59.2937C255.297 59.2937 254.399 58.0965 254.399 56.8994V52.1107C254.399 50.6143 255.596 49.7164 256.793 49.7164H263.677V38.9419C263.677 37.4455 264.874 36.5476 266.071 36.5476H272.357C273.853 36.5476 274.751 37.7448 274.751 38.9419V49.7164H284.627C286.124 49.7164 287.022 50.9136 287.022 52.1107V56.8994C287.022 58.3958 285.825 59.2937 284.627 59.2937H274.751V79.0469C274.751 81.4412 275.05 83.237 275.948 84.4341C276.846 85.6313 278.342 86.5292 281.036 86.5292C281.934 86.5292 283.131 86.5292 284.328 86.2299C285.825 85.9306 287.022 86.8285 287.022 88.3249V92.8143C287.022 93.7121 286.423 94.9093 285.525 95.2086C284.628 95.5079 283.73 95.8072 282.832 95.8072C281.036 96.1065 279.54 96.1065 278.342 96.1065C275.349 96.1065 272.955 95.8072 270.86 95.2086C269.064 94.61 267.568 93.4129 266.371 92.2157C265.174 90.7192 264.575 89.2228 263.976 87.1277C263.677 85.0327 263.378 82.6384 263.378 80.2441V59.593H256.793V59.2937ZM301.687 55.7022C301.687 55.7022 301.986 56.0015 301.687 55.7022C302.884 53.9065 304.381 52.41 306.476 50.6143C308.571 49.1178 311.564 48.2199 315.155 48.2199C318.148 48.2199 320.842 48.8185 322.937 49.7164C325.032 50.6143 326.828 52.1107 328.025 53.6072C329.222 55.1036 330.419 57.1987 330.718 59.2937C331.317 61.3887 331.616 63.7831 331.616 65.8781V91.9164C331.616 93.4129 330.419 94.3107 329.222 94.3107H322.937C321.44 94.3107 320.542 93.1136 320.542 91.9164V71.8639C320.542 70.6668 320.542 69.1703 320.243 67.6738C320.243 66.1774 319.645 64.6809 319.345 63.1845C318.747 61.688 317.849 60.7902 316.951 59.8923C315.754 58.9944 314.257 58.3958 312.462 58.3958C310.666 58.3958 308.87 58.6951 307.673 59.2937C306.476 59.8923 305.279 60.7902 304.381 61.9873C303.483 63.1845 302.884 64.3816 302.585 65.5788C302.286 67.0753 301.986 68.2724 301.986 70.0682V92.2157C301.986 93.7121 300.789 94.61 299.592 94.61H293.307C291.81 94.61 290.913 93.4129 290.913 92.2157V26.0724C290.913 24.576 292.11 23.6781 293.307 23.6781H299.592C301.088 23.6781 301.986 24.8753 301.986 26.0724V55.7022H301.687ZM338.799 26.0724C338.799 24.576 339.996 23.6781 341.193 23.6781H347.479C348.975 23.6781 349.873 24.8753 349.873 26.0724V92.515C349.873 94.0114 348.676 94.9093 347.479 94.9093H341.193C339.697 94.9093 338.799 93.7121 338.799 92.515V26.0724ZM357.355 52.1107C357.355 50.6143 358.552 49.7164 359.749 49.7164H366.035C367.531 49.7164 368.429 50.9136 368.429 52.1107V92.515C368.429 94.0114 367.232 94.9093 366.035 94.9093H359.749C358.253 94.9093 357.355 93.7121 357.355 92.515V52.1107ZM355.859 34.1533C355.859 32.3575 356.457 30.8611 357.954 29.3646C359.45 27.8682 360.947 27.2696 363.042 27.2696C365.137 27.2696 366.932 27.8682 368.429 29.0653C369.925 30.2625 370.524 32.0582 370.524 33.854C370.524 35.949 369.925 37.4455 368.429 38.6426C366.932 39.8398 365.137 40.4384 363.042 40.4384C360.947 40.4384 359.151 39.8398 357.954 38.3433C356.457 37.4455 355.859 35.949 355.859 34.1533ZM419.907 49.4171C421.403 49.4171 422.301 50.6143 422.301 51.8114V90.7192C422.301 94.9093 421.703 98.5008 420.805 101.793C419.907 105.085 418.111 107.779 416.016 110.173C413.921 112.567 411.228 114.363 407.935 115.56C404.643 116.758 401.052 117.356 396.562 117.356C392.372 117.356 388.481 116.758 384.591 115.86C382.196 115.261 378.306 112.867 376.21 111.37C375.013 110.472 374.714 108.976 375.612 108.078L379.503 102.99C380.401 101.793 381.897 101.793 383.094 102.392C384.591 103.589 386.686 105.085 388.182 105.684C390.576 106.881 393.569 107.48 396.562 107.48C399.256 107.48 401.65 107.18 403.446 106.282C405.242 105.384 406.738 104.487 407.935 103.289C409.132 102.092 409.731 100.297 410.33 98.5008C410.928 96.7051 410.928 94.61 410.928 92.2157V88.9235H410.629C409.132 91.0185 406.738 92.8143 404.045 94.0114C401.351 95.2086 398.657 95.8072 395.664 95.8072C392.372 95.8072 389.08 95.2086 386.386 94.0114C383.693 92.8143 381.298 91.0185 379.203 88.9235C377.108 86.8285 375.612 84.4341 374.714 81.4412C373.517 78.7476 373.218 75.4554 373.218 72.4625C373.218 69.1703 373.816 65.8781 374.714 63.1845C375.612 60.1916 377.108 57.7973 379.203 55.7022C381.298 53.6072 383.393 51.8114 386.386 50.6143C389.08 49.4171 392.372 48.8185 395.664 48.8185C398.957 48.8185 401.949 49.4171 404.643 50.6143C407.337 51.8114 409.731 53.9065 411.227 56.6001H411.527V52.1107C411.527 50.6143 412.724 49.7164 413.921 49.7164H419.907V49.4171ZM398.358 58.6951C396.263 58.6951 394.467 58.9944 392.971 59.593C391.474 60.1916 389.978 61.0894 388.781 62.2866C387.584 63.4838 386.686 64.9802 386.087 66.4767C385.488 68.2724 385.189 70.0682 385.189 71.8639C385.189 73.6597 385.488 75.4554 386.087 76.9519C386.686 78.4483 387.584 79.9448 388.781 81.1419C389.978 82.3391 391.474 83.237 392.971 83.8355C394.467 84.4341 396.263 84.7334 398.358 84.7334C400.453 84.7334 402.249 84.4341 404.045 83.8355C405.84 83.237 407.037 82.3391 408.235 81.1419C409.432 79.9448 410.33 78.4483 410.928 76.9519C411.527 75.4554 411.826 73.6597 411.826 71.5646C411.826 67.6739 410.629 64.3816 408.235 61.9873C405.541 59.8923 402.249 58.6951 398.358 58.6951ZM440.558 55.7022C440.558 55.7022 440.558 56.0015 440.558 55.7022C441.755 53.9065 443.252 52.41 445.347 50.6143C447.442 49.1178 450.435 48.2199 454.026 48.2199C457.019 48.2199 459.713 48.8185 461.808 49.7164C463.903 50.6143 465.698 52.1107 466.896 53.6072C468.093 55.1036 469.29 57.1987 469.589 59.2937C470.188 61.3887 470.487 63.7831 470.487 65.8781V91.9164C470.487 93.4129 469.29 94.3107 468.093 94.3107H461.808C460.311 94.3107 459.413 93.1136 459.413 91.9164V71.8639C459.413 70.6668 459.413 69.1703 459.114 67.6738C459.114 66.1774 458.515 64.6809 458.216 63.1845C457.618 61.688 456.72 60.7902 455.822 59.8923C454.625 58.9944 453.128 58.3958 451.332 58.3958C449.537 58.3958 447.741 58.6951 446.544 59.2937C445.347 59.8923 444.149 60.7902 443.252 61.9873C442.354 63.1845 441.755 64.3816 441.456 65.5788C441.157 67.0753 440.857 68.2724 440.857 70.0682V92.2157C440.857 93.7121 439.66 94.61 438.463 94.61H432.178C430.681 94.61 429.784 93.4129 429.784 92.2157V26.0724C429.784 24.576 430.981 23.6781 432.178 23.6781H438.463C439.959 23.6781 440.857 24.8753 440.857 26.0724V55.7022H440.558ZM474.378 59.2937C472.881 59.2937 471.984 58.0965 471.984 56.8994V52.1107C471.984 50.6143 473.181 49.7164 474.378 49.7164H481.262V38.9419C481.262 37.4455 482.459 36.5476 483.656 36.5476H489.941C491.437 36.5476 492.335 37.7448 492.335 38.9419V49.7164H502.212C503.708 49.7164 504.606 50.9136 504.606 52.1107V56.8994C504.606 58.3958 503.409 59.2937 502.212 59.2937H492.335V79.0469C492.335 81.4412 492.635 83.237 493.532 84.4341C494.43 85.6313 495.927 86.5292 498.62 86.5292C499.518 86.5292 500.715 86.5292 501.913 86.2299C503.409 85.9306 504.606 86.8285 504.606 88.3249V92.8143C504.606 93.7121 504.008 94.9093 503.11 95.2086C502.212 95.5079 501.314 95.8072 500.416 95.8072C498.62 96.1065 497.124 96.1065 495.927 96.1065C492.934 96.1065 490.54 95.8072 488.445 95.2086C486.649 94.61 485.152 93.4129 483.955 92.2157C482.758 90.7192 482.159 89.2228 481.561 87.1277C481.262 85.0327 480.962 82.6384 480.962 80.2441V59.593H474.378V59.2937Z" fill="white"/>
</svg>
